<svg xmlns="http://www.w3.org/2000/svg"
     width="320" height="480"
     viewBox="0 0 32 48"
     shape-rendering="crispEdges">

  <!-- head -->
  <rect x="8" y="2" width="16" height="16" fill="#0a0a0a"/>
  <rect x="9" y="3" width="14" height="14" fill="#f0c7a4"/>

  <!-- face planes -->
  <rect x="9" y="10" width="14" height="4" fill="#d9a27b"/>
  <rect x="10" y="14" width="12" height="2" fill="#b67d5a"/>

  <!-- hair -->
  <rect x="9" y="3" width="14" height="3" fill="#2a2a2a"/>
  <rect x="11" y="6" width="10" height="1" fill="#1b1b1b"/>

  <!-- stubble -->
  <rect x="9" y="12" width="14" height="4" fill="#c4936f"/>
  <rect x="11" y="13" width="10" height="3" fill="#b67d5a"/>

  <!-- eyes -->
  <rect x="12" y="9" width="2" height="1" fill="#0a0a0a"/>
  <rect x="18" y="9" width="2" height="1" fill="#0a0a0a"/>

  <!-- mouth -->
  <rect x="12" y="15" width="8" height="1" fill="#8a3a32"/>

  <!-- BIG NECK -->
  <rect x="12" y="18" width="8" height="4" fill="#b67d5a"/>

  <!-- EXTRA FAT BODY -->
  <rect x="6" y="22" width="20" height="14" fill="#1f3560"/>
  <rect x="7" y="28" width="18" height="6" fill="#162947"/>

  <!-- shirt -->
  <rect x="12" y="22" width="8" height="7" fill="#eef2ff"/>

  <!-- tie -->
  <rect x="15" y="23" width="2" height="10" fill="#c22f2b"/>
  <rect x="14" y="22" width="4" height="1" fill="#c22f2b"/>

  <!-- arms -->
  <rect x="3" y="24" width="3" height="10" fill="#1f3560"/>
  <rect x="26" y="24" width="3" height="10" fill="#1f3560"/>

  <!-- hands -->
  <rect x="3" y="34" width="3" height="3" fill="#f0c7a4"/>
  <rect x="26" y="34" width="3" height="3" fill="#f0c7a4"/>

  <!-- legs -->
  <rect x="11" y="36" width="4" height="6" fill="#162947"/>
  <rect x="17" y="36" width="4" height="6" fill="#162947"/>

  <!-- RED HIGH HEELS -->
  <!-- left shoe -->
  <rect x="10" y="42" width="6" height="2" fill="#c22f2b"/>
  <rect x="14" y="44" width="1" height="3" fill="#c22f2b"/>
  <!-- right shoe -->
  <rect x="16" y="42" width="6" height="2" fill="#c22f2b"/>
  <rect x="18" y="44" width="1" height="3" fill="#c22f2b"/>

</svg>
