<svg xmlns="http://www.w3.org/2000/svg"
     width="320" height="480"
     viewBox="0 0 32 48"
     shape-rendering="crispEdges">

  <!-- PALETTE -->
  <!-- outline #0a0a0a -->
  <!-- skinLight #f3caa4 -->
  <!-- skinMid #e1a87c -->
  <!-- skinDark #c98a5e -->
  <!-- hairLight #d6d6d6 -->
  <!-- hairDark #9e9e9e -->
  <!-- glasses #000000 -->
  <!-- suit #1f3560 -->
  <!-- suitDark #162947 -->
  <!-- shirt #e9efff -->
  <!-- tie #c22f2b -->

  <!-- HEAD OUTLINE -->
  <rect x="8" y="2" width="16" height="16" fill="#0a0a0a"/>

  <!-- FACE -->
  <rect x="9" y="3" width="14" height="14" fill="#f3caa4"/>

  <!-- FACE SHADOW PLANES -->
  <rect x="9" y="11" width="14" height="4" fill="#e1a87c"/>
  <rect x="11" y="14" width="10" height="3" fill="#c98a5e"/>

  <!-- RECEDING HAIR -->
  <rect x="9" y="3" width="14" height="3" fill="#d6d6d6"/>
  <rect x="9" y="6" width="3" height="1" fill="#d6d6d6"/>
  <rect x="20" y="6" width="3" height="1" fill="#d6d6d6"/>
  <rect x="12" y="4" width="8" height="1" fill="#9e9e9e"/>

  <!-- EARS -->
  <rect x="8" y="7" width="1" height="4" fill="#e1a87c"/>
  <rect x="23" y="7" width="1" height="4" fill="#e1a87c"/>

  <!-- EYEBROWS -->
  <rect x="11" y="7" width="4" height="1" fill="#9e9e9e"/>
  <rect x="17" y="7" width="4" height="1" fill="#9e9e9e"/>

  <!-- GLASSES (DOMINANT) -->
  <rect x="10" y="8" width="6" height="4" fill="#000000"/>
  <rect x="16" y="9" width="1" height="1" fill="#000000"/>
  <rect x="17" y="8" width="6" height="4" fill="#000000"/>

  <!-- LENSES -->
  <rect x="11" y="9" width="4" height="2" fill="#2b2b2b"/>
  <rect x="18" y="9" width="4" height="2" fill="#2b2b2b"/>

  <!-- EYES -->
  <rect x="12" y="10" width="1" height="1" fill="#dbe6ff"/>
  <rect x="20" y="10" width="1" height="1" fill="#dbe6ff"/>

  <!-- NOSE -->
  <rect x="15" y="11" width="2" height="4" fill="#c98a5e"/>

  <!-- MOUTH -->
  <rect x="12" y="16" width="8" height="1" fill="#8b2e28"/>

  <!-- NECK -->
  <rect x="13" y="18" width="6" height="2" fill="#c98a5e"/>

  <!-- TORSO -->
  <rect x="9" y="20" width="14" height="14" fill="#1f3560"/>
  <rect x="9" y="28" width="14" height="6" fill="#162947"/>

  <!-- SHIRT -->
  <rect x="13" y="20" width="6" height="6" fill="#e9efff"/>

  <!-- TIE -->
  <rect x="15" y="21" width="2" height="8" fill="#c22f2b"/>
  <rect x="14" y="20" width="4" height="1" fill="#c22f2b"/>

  <!-- ARMS -->
  <rect x="6" y="22" width="3" height="10" fill="#1f3560"/>
  <rect x="23" y="22" width="3" height="10" fill="#1f3560"/>

  <!-- HANDS -->
  <rect x="6" y="32" width="3" height="3" fill="#f3caa4"/>
  <rect x="23" y="32" width="3" height="3" fill="#f3caa4"/>

  <!-- LEGS -->
  <rect x="11" y="34" width="4" height="10" fill="#162947"/>
  <rect x="17" y="34" width="4" height="10" fill="#162947"/>

  <!-- SHOES -->
  <rect x="10" y="44" width="6" height="2" fill="#0a0a0a"/>
  <rect x="16" y="44" width="6" height="2" fill="#0a0a0a"/>

</svg>
