<svg xmlns="http://www.w3.org/2000/svg"
     width="384" height="384"
     viewBox="0 0 48 48"
     shape-rendering="crispEdges">

  <!-- PALETTE -->
  <!-- outline #0a0a0a -->
  <!-- skinLight #f3caa4 -->
  <!-- skinMid #e1a87c -->
  <!-- skinDark #c98a5e -->
  <!-- hairLight #d6d6d6 -->
  <!-- hairDark #9e9e9e -->
  <!-- glasses #000000 -->
  <!-- suit #1f3560 -->
  <!-- shirt #e9efff -->
  <!-- tie #c22f2b -->

  <!-- HEAD OUTLINE -->
  <rect x="10" y="6" width="28" height="26" fill="#0a0a0a"/>

  <!-- FACE BASE -->
  <rect x="11" y="7" width="26" height="24" fill="#f3caa4"/>

  <!-- FACE SHADOW (SF-style hard planes) -->
  <rect x="11" y="18" width="26" height="6" fill="#e1a87c"/>
  <rect x="14" y="22" width="20" height="4" fill="#c98a5e"/>

  <!-- RECEDING HAIRLINE -->
  <rect x="11" y="7" width="26" height="4" fill="#d6d6d6"/>
  <rect x="11" y="11" width="6" height="2" fill="#d6d6d6"/>
  <rect x="31" y="11" width="6" height="2" fill="#d6d6d6"/>
  <rect x="16" y="9" width="16" height="2" fill="#9e9e9e"/>

  <!-- EARS -->
  <rect x="10" y="14" width="2" height="6" fill="#e1a87c"/>
  <rect x="36" y="14" width="2" height="6" fill="#e1a87c"/>

  <!-- EYEBROWS (HEAVY) -->
  <rect x="16" y="14" width="6" height="2" fill="#9e9e9e"/>
  <rect x="26" y="14" width="6" height="2" fill="#9e9e9e"/>

  <!-- GLASSES (ICONIC, THICK) -->
  <rect x="14" y="16" width="10" height="6" fill="#000000"/>
  <rect x="24" y="18" width="2" height="2" fill="#000000"/>
  <rect x="26" y="16" width="10" height="6" fill="#000000"/>

  <!-- LENSES -->
  <rect x="15" y="17" width="8" height="4" fill="#2b2b2b"/>
  <rect x="27" y="17" width="8" height="4" fill="#2b2b2b"/>

  <!-- EYES -->
  <rect x="18" y="19" width="2" height="2" fill="#dbe6ff"/>
  <rect x="30" y="19" width="2" height="2" fill="#dbe6ff"/>

  <!-- NOSE (BLOCKY, SF STYLE) -->
  <rect x="23" y="20" width="2" height="6" fill="#c98a5e"/>

  <!-- MOUTH (FLAT, SERIOUS) -->
  <rect x="18" y="27" width="12" height="2" fill="#8b2e28"/>

  <!-- JAW SHADOW -->
  <rect x="14" y="26" width="20" height="2" fill="#b57a52"/>

  <!-- NECK -->
  <rect x="20" y="31" width="8" height="4" fill="#c98a5e"/>

  <!-- SUIT SHOULDERS -->
  <rect x="6" y="35" width="36" height="9" fill="#1f3560"/>

  <!-- SHIRT -->
  <rect x="18" y="35" width="12" height="6" fill="#e9efff"/>

  <!-- TIE -->
  <rect x="23" y="36" width="2" height="6" fill="#c22f2b"/>
  <rect x="22" y="35" width="4" height="1" fill="#c22f2b"/>

</svg>
